<?xml version="1.0" standalone="no"?>
<!DOCTYPE svg PUBLIC "-//W3C//DTD SVG 20010904//EN"
 "http://www.w3.org/TR/2001/REC-SVG-20010904/DTD/svg10.dtd">
<svg version="1.0" xmlns="http://www.w3.org/2000/svg"
 width="300.000000pt" height="400.000000pt" viewBox="0 0 300.000000 400.000000"
 preserveAspectRatio="xMidYMid meet">
<metadata>
Created by potrace 1.10, written by Peter Selinger 2001-2011
</metadata>
<g transform="translate(0.000000,400.000000) scale(0.100000,-0.100000)"
fill="#000000" stroke="none">
<path d="M1389 3572 c-30 -13 -167 -147 -201 -198 -46 -69 -75 -159 -57 -180
11 -14 10 -18 -5 -29 -12 -9 -16 -20 -11 -34 4 -12 -3 -49 -15 -86 -12 -35
-18 -70 -14 -76 10 -17 24 10 24 48 0 17 4 34 8 37 18 11 28 -12 29 -64 0 -30
6 -56 11 -58 6 -2 9 -9 6 -17 -3 -7 -1 -16 4 -19 6 -3 8 -16 5 -29 -4 -18 -3
-19 6 -7 9 13 11 13 11 -2 0 -10 0 -21 -1 -24 0 -4 5 -11 13 -15 10 -7 9 -9
-4 -9 -24 0 -40 -34 -32 -67 12 -56 58 -198 67 -210 5 -7 20 -13 34 -13 18 0
24 5 21 18 -2 10 -11 16 -21 14 -9 -2 -17 2 -17 8 0 5 5 10 10 10 14 0 12 36
-4 68 -16 33 -37 174 -37 252 0 31 -1 32 -8 10 -13 -45 -19 -6 -10 65 6 45 5
71 -1 73 -6 2 -8 16 -5 30 4 21 1 19 -14 -11 -18 -37 -19 -38 -23 -13 -4 17 1
31 15 43 21 19 71 120 70 140 0 7 3 11 7 8 5 -3 11 -1 15 5 3 5 14 10 23 10
19 0 77 49 68 57 -3 3 -12 1 -19 -5 -8 -7 -17 -9 -20 -5 -4 3 -7 1 -7 -5 0 -7
-9 -12 -21 -12 -11 0 -18 3 -16 8 3 4 -5 7 -18 7 -13 0 -21 -4 -17 -9 3 -5 -5
-7 -16 -4 -29 8 -28 -10 1 -22 12 -5 18 -10 12 -11 -5 -1 -14 -2 -20 -4 -5 -1
-18 -3 -27 -3 -10 -1 -24 -14 -32 -29 -9 -17 -15 -22 -16 -12 0 9 3 19 6 22 4
4 14 28 23 54 16 48 81 156 89 148 2 -2 14 6 27 18 12 12 37 33 54 47 17 14
31 30 31 37 0 9 16 13 46 13 27 0 43 4 39 10 -7 11 8 14 18 4 11 -11 -34 -45
-53 -39 -10 3 -22 0 -26 -6 -4 -8 -3 -9 4 -5 6 4 28 0 49 -9 33 -13 35 -13 19
0 -11 8 -14 15 -8 15 7 0 21 9 32 20 15 15 33 20 70 20 28 0 50 -4 50 -10 0
-5 -5 -10 -12 -10 -6 0 -9 -3 -5 -6 3 -4 19 -2 34 3 15 5 42 6 58 2 28 -6 28
-7 4 -8 -49 -2 -194 -44 -218 -62 -13 -10 -28 -16 -35 -12 -8 4 -8 3 0 -6 9
-9 19 -7 46 8 32 19 80 32 187 51 47 8 111 -4 111 -21 0 -5 10 -14 23 -19 20
-8 20 -9 2 -9 -11 0 -29 6 -39 14 -11 8 -38 15 -60 14 -32 0 -37 -2 -21 -9 14
-6 15 -9 5 -9 -9 -1 -21 4 -28 11 -9 9 -12 8 -12 -4 0 -9 6 -19 13 -22 6 -3 0
-3 -14 0 -15 3 -40 -1 -58 -10 -17 -9 -34 -15 -38 -14 -12 2 -67 -22 -61 -27
2 -3 18 0 34 5 37 12 192 50 202 50 4 -1 -4 -7 -18 -15 l-25 -15 30 5 c134 22
149 23 172 6 12 -9 23 -22 23 -28 0 -12 40 -19 40 -8 0 15 -70 66 -105 77 -22
7 -42 15 -45 18 -3 3 -21 16 -41 28 -45 28 -123 45 -214 48 -38 1 -86 5 -105
7 -19 3 -42 2 -51 -1z m-174 -362 c3 -5 -1 -10 -9 -10 -15 0 -20 -14 -19 -48
1 -10 -2 -10 -14 -1 -12 10 -13 8 -10 -12 3 -15 -3 -34 -14 -48 -20 -24 -26
-13 -10 18 6 10 6 23 1 31 -7 11 0 24 22 47 34 35 43 39 53 23z"/>
<path d="M1710 3410 l-75 -6 78 -2 c46 -1 77 2 77 8 0 6 -1 9 -2 8 -2 -1 -37
-4 -78 -8z"/>
<path d="M1785 3375 c-16 -9 -21 -13 -10 -9 11 3 38 8 60 10 37 3 38 3 10 -6
l-30 -9 30 2 c17 1 30 7 30 12 0 16 -57 16 -90 0z"/>
<path d="M1555 3353 c15 -15 63 -17 84 -4 18 12 -11 21 -61 19 -30 -1 -34 -3
-23 -15z"/>
<path d="M1909 3353 c-10 -12 -10 -15 -1 -9 27 16 63 16 79 0 13 -12 18 -13
21 -4 11 31 -76 42 -99 13z"/>
<path d="M1793 3338 c-2 -16 0 -19 6 -9 6 9 20 11 50 6 27 -4 41 -3 41 4 0 6
-15 11 -34 11 -19 0 -41 2 -48 5 -9 4 -14 -2 -15 -17z"/>
<path d="M1886 3315 l-49 -24 35 2 c20 1 34 6 31 10 -3 5 4 11 16 14 12 3 21
9 21 14 0 11 3 12 -54 -16z"/>
<path d="M1410 3305 c-26 -9 -31 -14 -19 -19 16 -7 76 19 62 27 -4 2 -24 -1
-43 -8z"/>
<path d="M1484 3308 c-3 -4 -2 -8 3 -8 4 0 1 -5 -7 -10 -19 -13 33 -8 69 7 20
8 21 11 8 16 -10 4 -17 2 -17 -3 0 -6 -5 -10 -11 -10 -5 0 -8 4 -5 8 2 4 -4 8
-15 8 -11 0 -23 -4 -25 -8z"/>
<path d="M1940 3302 c-5 -2 -10 -12 -10 -23 0 -11 -7 -19 -17 -19 -16 0 -16 2
-3 11 12 9 11 9 -5 3 -11 -4 -31 -7 -45 -6 -14 1 -34 1 -45 1 -59 -2 -88 3
-97 15 -8 12 -123 15 -140 5 -25 -15 8 -31 56 -28 25 3 46 1 46 -2 0 -3 14 -5
31 -4 17 1 48 -4 68 -10 58 -20 114 -28 106 -16 -3 6 -17 11 -30 11 -13 0 -26
3 -28 8 -3 4 19 5 48 4 43 -3 57 0 74 17 26 26 32 27 24 4 -6 -16 -5 -16 10
-4 9 7 17 19 17 25 0 10 -37 15 -60 8z"/>
<path d="M2005 3241 c-11 -5 -24 -6 -29 -3 -5 3 -7 -2 -4 -10 5 -11 -1 -15
-23 -16 -16 0 -27 3 -24 9 3 5 -1 6 -10 3 -14 -6 -14 -10 7 -29 14 -14 27 -19
33 -14 14 13 25 11 25 -6 0 -8 9 -19 19 -25 24 -12 41 -13 22 -1 -22 14 -24
51 -3 51 13 1 12 4 -7 14 l-24 13 31 5 c18 2 30 3 28 1 -2 -2 0 -20 4 -40 10
-44 -13 -91 -36 -72 -17 14 -19 -2 -2 -19 8 -8 15 -9 25 -1 18 15 16 4 -3 -26
-9 -13 -14 -30 -11 -37 3 -8 6 -6 6 5 1 10 6 15 11 12 8 -5 8 -11 0 -20 -6 -7
-7 -21 -3 -30 5 -14 3 -16 -7 -10 -10 6 -12 4 -7 -9 4 -10 7 -19 7 -21 0 -2
11 2 25 8 20 10 25 19 25 50 0 30 -4 40 -20 44 -11 3 -17 9 -14 14 3 5 9 7 14
4 16 -10 22 75 9 120 -14 46 -24 52 -64 36z"/>
<path d="M1940 3142 c0 -5 12 -35 26 -66 19 -41 24 -67 21 -98 -3 -24 -1 -72
3 -108 7 -62 7 -63 9 -17 0 29 7 55 17 64 10 10 13 23 9 37 -4 12 -8 32 -9 46
-4 53 -19 91 -47 121 -16 17 -29 27 -29 21z"/>
<path d="M1794 3026 c19 -15 18 -16 -12 -16 -18 0 -32 4 -32 10 0 10 -25 8
-100 -8 -26 -6 -36 -14 -38 -31 -3 -19 -1 -21 15 -13 10 6 54 12 98 15 84 5
111 9 120 19 8 7 -15 24 -45 32 -24 7 -24 6 -6 -8z"/>
<path d="M1440 2983 c-14 -2 -32 -6 -40 -9 -8 -3 -17 -5 -20 -5 -3 0 -12 -7
-21 -15 -9 -8 -19 -11 -22 -7 -4 3 -7 0 -7 -8 0 -12 -2 -12 -9 0 -23 36 -71
-49 -63 -111 l4 -37 34 33 c19 18 34 37 34 42 0 5 -5 1 -11 -8 -5 -10 -17 -18
-25 -18 -8 0 -12 5 -9 10 3 6 1 10 -6 10 -8 0 -6 7 5 19 10 11 25 20 34 19 10
0 47 12 83 25 38 15 71 22 78 17 11 -6 11 -8 0 -12 -9 -3 -7 -10 9 -26 15 -15
22 -35 23 -64 0 -24 2 -51 4 -60 2 -9 -3 -29 -11 -44 -8 -15 -12 -30 -9 -33 8
-7 25 20 25 41 0 9 4 19 8 22 4 2 5 42 1 87 -6 72 -11 85 -36 109 -19 17 -36
25 -53 23z"/>
<path d="M2070 2951 c-13 -26 -13 -31 4 -25 10 4 15 -4 16 -30 4 -63 3 -110
-2 -141 -3 -16 -6 -36 -7 -43 -2 -21 -48 -37 -66 -22 -12 10 -15 10 -15 -4 0
-9 -6 -16 -14 -16 -9 0 -17 -24 -25 -77 -19 -128 -87 -243 -144 -243 -17 0
-18 -2 -6 -17 10 -11 10 -14 2 -9 -7 4 -13 2 -13 -4 0 -6 -11 -22 -25 -35 -13
-14 -29 -25 -35 -25 -6 0 -8 -4 -5 -10 3 -6 -1 -7 -10 -4 -8 4 -21 2 -28 -4
-12 -10 -61 -22 -104 -28 -14 -1 -23 3 -23 12 0 8 5 14 12 14 6 0 9 2 6 5 -8
8 -39 -6 -33 -15 3 -5 1 -11 -4 -15 -5 -3 -13 1 -18 8 -4 7 -23 24 -41 37 -21
16 -29 27 -22 34 13 13 13 29 1 21 -6 -3 -14 3 -20 12 -10 17 -10 17 -11 1 0
-10 5 -18 11 -18 9 0 9 -4 0 -13 -8 -11 -6 -18 9 -32 11 -10 20 -14 20 -10 0
4 11 -5 25 -21 14 -16 35 -30 47 -32 60 -6 110 -4 121 7 6 6 26 11 44 11 22 0
42 8 57 23 13 12 32 29 42 38 11 9 37 42 59 74 22 31 45 64 52 73 18 27 27
-65 14 -143 -11 -63 -8 -105 7 -105 12 1 49 35 59 55 11 21 10 36 -2 74 -6 21
-5 21 14 9 12 -7 24 -24 27 -38 7 -36 20 -55 34 -52 7 2 9 -5 5 -19 -8 -24 12
-106 28 -116 6 -4 7 -1 2 6 -4 7 -8 30 -10 51 -2 38 -2 38 31 35 l32 -3 -20
37 c-27 49 -47 70 -83 88 -16 9 -48 34 -70 56 -44 46 -46 57 -19 187 9 41 18
85 20 97 3 18 9 20 43 16 33 -5 41 -2 55 18 20 31 33 222 17 262 -12 32 -26
35 -41 8z"/>
<path d="M1710 2932 c-26 -12 -60 -36 -60 -43 0 -15 36 -2 43 15 7 17 9 18 25
2 25 -22 38 -20 56 6 13 18 16 19 21 6 4 -10 14 -14 27 -10 20 5 20 5 -3 18
-25 14 -84 17 -109 6z"/>
<path d="M1342 2846 c-29 -28 -33 -34 -17 -33 11 1 23 10 27 20 8 18 28 24 28
7 0 -19 39 -10 54 12 12 17 18 19 30 9 9 -7 21 -11 28 -8 19 7 -38 27 -78 27
-25 0 -44 -9 -72 -34z"/>
<path d="M2025 2850 c-3 -5 3 -15 15 -22 11 -7 20 -21 20 -30 0 -10 5 -18 10
-18 6 0 10 11 10 24 0 25 -44 63 -55 46z"/>
<path d="M1330 2791 c0 -15 54 -23 85 -11 38 14 27 22 -14 10 -22 -6 -40 -6
-52 1 -12 6 -19 6 -19 0z"/>
<path d="M1261 2759 c0 -14 2 -29 6 -33 16 -16 43 -125 43 -176 0 -39 7 -65
23 -91 22 -36 83 -109 90 -109 2 0 2 11 -1 25 -3 19 0 25 12 25 10 0 15 4 11
10 -3 5 -12 7 -20 4 -9 -4 -18 1 -22 12 -3 9 -15 26 -26 37 -10 10 -16 25 -13
33 3 8 1 14 -4 14 -5 0 -12 17 -16 38 -4 20 -11 40 -16 43 -5 3 -9 25 -10 49
0 24 -4 37 -8 30 -5 -8 -10 -1 -15 21 -4 19 -11 39 -15 44 -4 6 -10 19 -13 30
-4 16 -5 15 -6 -6z"/>
<path d="M1636 2671 c-7 -10 43 -25 52 -16 7 7 -18 25 -35 25 -6 0 -14 -4 -17
-9z"/>
<path d="M1534 2633 c1 -17 -4 -27 -11 -25 -16 3 -16 -8 1 -30 14 -19 46 -24
46 -8 0 6 10 10 23 10 21 1 21 1 4 14 -12 9 -14 16 -8 21 16 9 13 22 -6 28
-10 2 -25 8 -34 11 -13 6 -16 1 -15 -21z"/>
<path d="M1690 2608 c0 -6 3 -8 7 -5 3 4 11 -1 18 -10 7 -9 19 -17 27 -19 35
-5 58 -16 58 -29 0 -7 9 -15 19 -18 11 -2 21 -13 24 -23 2 -11 2 -3 0 16 -6
41 -16 56 -54 76 -24 12 -28 12 -31 -2 -3 -14 -7 -13 -30 5 -30 24 -38 26 -38
9z"/>
<path d="M1495 2570 c-4 -6 -11 -8 -16 -5 -5 4 -9 0 -9 -7 0 -10 -2 -10 -8 -1
-12 19 -41 -37 -40 -76 1 -28 3 -30 11 -15 6 10 24 33 41 52 16 18 31 39 32
47 3 17 -2 19 -11 5z"/>
<path d="M1710 2549 c0 -5 19 -9 42 -9 23 0 39 2 37 5 -10 9 -79 13 -79 4z"/>
<path d="M1594 2541 c-2 -2 -20 -6 -40 -8 -44 -5 -86 -24 -66 -31 7 -2 25 1
40 6 15 6 60 14 99 17 79 8 92 25 17 22 -25 -1 -48 -4 -50 -6z"/>
<path d="M1622 2433 c0 -10 -3 -27 -6 -38 -8 -20 -7 -20 8 -1 16 19 16 19 16
-3 0 -12 4 -19 10 -16 6 4 8 10 5 15 -3 5 -1 11 5 15 10 6 14 -25 10 -75 -1
-14 1 -22 4 -19 4 3 8 29 10 57 3 38 0 52 -9 52 -7 0 -15 7 -19 15 -8 21 -35
19 -34 -2z"/>
<path d="M1365 2365 c4 -16 7 -30 8 -30 1 -1 10 -6 19 -13 24 -19 18 7 -10 44
l-23 29 6 -30z"/>
<path d="M1475 2340 c-3 -4 1 -10 7 -13 11 -3 11 -9 0 -26 -7 -11 -8 -21 -4
-21 7 0 32 42 32 54 0 9 -30 14 -35 6z"/>
<path d="M1295 2309 c-91 -38 -136 -64 -188 -110 l-52 -46 15 -32 15 -32 37
28 c20 15 56 39 78 53 23 14 64 48 91 77 27 28 49 48 49 43 0 -5 -4 -11 -10
-15 -5 -3 -7 -12 -3 -20 3 -8 1 -15 -4 -15 -5 0 -17 -14 -27 -31 -10 -17 -20
-28 -22 -26 -3 3 -17 -7 -32 -22 -15 -14 -38 -33 -51 -41 -13 -8 -29 -19 -35
-25 -41 -35 -172 -99 -186 -90 -5 3 -10 0 -10 -7 0 -10 -3 -9 -10 2 -5 8 -11
12 -14 9 -3 -2 -2 -10 3 -17 12 -20 95 1 143 37 24 18 69 49 100 69 31 20 72
50 90 66 73 64 72 64 59 39 -6 -13 -9 -23 -6 -23 3 0 -1 -10 -9 -22 -9 -12
-16 -37 -16 -55 0 -17 -5 -35 -10 -38 -6 -4 -19 -23 -30 -43 -12 -20 -29 -50
-40 -67 -10 -16 -19 -40 -19 -52 -1 -12 -21 -39 -48 -64 l-48 -42 51 36 51 36
11 -37 c10 -34 11 -32 8 31 -3 52 0 72 12 84 9 8 26 37 38 64 13 27 27 49 32
49 11 0 22 -48 22 -96 0 -37 32 -94 74 -133 38 -36 32 -10 -14 55 -27 38 -41
71 -45 102 -3 26 -12 65 -19 88 -12 36 -12 43 3 63 l17 23 33 -31 c34 -32 51
-39 51 -20 0 5 -4 8 -8 5 -5 -3 -21 8 -37 24 -25 26 -27 34 -26 109 1 45 -2
81 -6 81 -5 -1 -30 -10 -58 -21z m-48 -69 c-7 -8 -20 -21 -30 -28 -9 -7 -14
-18 -11 -24 5 -7 -2 -9 -19 -6 -14 3 -25 2 -24 -2 1 -5 -1 -8 -5 -9 -18 -2 -8
14 28 48 39 38 86 54 61 21z"/>
<path d="M2036 2213 c-4 -11 -24 -29 -45 -41 -44 -25 -56 -27 -45 -10 4 6 -3
4 -15 -4 -34 -24 -69 -76 -87 -130 -9 -28 -26 -55 -41 -66 -40 -27 -85 -75
-76 -81 21 -16 55 -99 60 -147 4 -33 11 -54 18 -54 21 0 5 84 -32 168 -16 38
-21 58 -14 65 6 6 13 8 17 5 11 -12 54 -139 54 -161 0 -18 2 -19 10 -7 11 16
4 68 -12 88 -6 6 -7 12 -3 12 4 0 2 6 -4 13 -6 8 -8 17 -4 21 4 3 -3 13 -15
22 -28 19 -21 33 14 26 28 -5 144 26 144 39 0 5 8 6 18 3 14 -5 14 -4 3 4 -10
7 -21 7 -33 1 -10 -5 -18 -7 -18 -4 0 3 -17 -2 -37 -10 -26 -11 -39 -12 -41
-5 -3 7 -12 4 -25 -7 l-21 -18 20 30 c11 17 27 46 34 65 16 43 36 66 25 30 -6
-17 5 -9 34 27 22 29 55 59 71 68 30 16 67 61 57 71 -3 3 -8 -3 -11 -13z"/>
<path d="M2029 2145 c-9 -19 -13 -35 -8 -35 5 0 9 -8 9 -17 0 -14 2 -15 9 -4
7 11 14 92 8 91 -1 -1 -9 -16 -18 -35z"/>
<path d="M2208 2160 c17 -11 32 -24 32 -29 0 -5 7 -12 16 -15 10 -4 13 -2 8 7
-6 9 -4 9 7 1 8 -6 41 -14 74 -18 33 -3 67 -7 75 -9 27 -5 61 -28 55 -37 -3
-5 0 -12 6 -16 8 -4 9 -3 5 4 -9 14 -1 15 23 3 9 -5 35 -12 57 -14 59 -7 171
-56 182 -81 6 -12 11 -15 11 -8 1 10 7 9 29 -2 37 -19 56 -42 42 -51 -5 -3
-10 -16 -10 -28 1 -20 2 -19 16 6 l16 29 24 -23 c16 -15 22 -29 18 -41 -3 -11
1 -20 10 -24 11 -4 16 -19 16 -49 0 -34 5 -46 25 -59 30 -20 55 -21 55 -2 0 9
-12 16 -32 18 l-33 3 0 71 c0 75 -13 104 -45 104 -10 0 -20 4 -22 8 -5 13
-118 87 -185 120 -34 17 -93 40 -131 51 -38 10 -79 24 -90 30 -12 6 -49 14
-84 18 -35 3 -82 17 -107 30 -24 12 -56 23 -70 23 -26 0 -26 0 7 -20z"/>
<path d="M2154 2152 c-6 -4 -13 -15 -17 -25 -6 -15 -4 -16 14 -6 35 18 32 3
-6 -29 -36 -32 -42 -42 -26 -42 16 0 81 74 81 93 0 17 -26 23 -46 9z"/>
<path d="M890 2140 c-14 -4 -58 -13 -98 -20 -56 -9 -83 -20 -118 -46 -24 -19
-53 -34 -65 -34 -29 0 -79 -53 -79 -84 0 -27 -32 -56 -63 -56 -11 0 -34 -15
-53 -34 -31 -31 -34 -39 -34 -95 0 -34 -4 -61 -10 -61 -20 0 -79 -62 -85 -90
-5 -22 -26 -45 -80 -85 -40 -30 -78 -62 -86 -71 -7 -8 -29 -24 -48 -34 -39
-20 -78 -57 -68 -66 3 -3 17 2 31 11 15 10 37 15 51 13 13 -3 22 -1 19 3 -3 5
0 18 6 30 10 18 17 20 61 14 32 -5 49 -3 49 4 0 6 -7 8 -15 5 -17 -7 -21 11
-4 22 8 4 7 9 -2 15 -25 15 22 23 55 10 65 -26 73 -26 42 1 -24 20 -28 30 -22
51 3 15 13 27 21 27 14 0 19 12 16 33 0 4 3 7 9 7 5 0 7 6 4 13 -3 8 11 26 32
42 34 26 38 27 49 12 11 -16 35 -24 35 -12 0 4 -6 18 -14 33 -7 15 -16 45 -19
68 -6 35 -3 44 17 61 22 19 25 20 40 5 15 -15 16 -14 16 11 0 17 5 27 15 27
22 0 52 38 59 75 4 19 16 44 27 57 18 20 20 21 14 3 -47 -140 -52 -222 -19
-304 26 -65 28 -40 3 29 -20 56 -21 67 -10 125 14 77 47 159 61 150 5 -3 10
-2 10 4 0 15 59 43 77 36 12 -4 13 -2 5 8 -16 18 13 34 61 32 20 -1 37 2 37 7
0 4 5 8 11 8 5 0 7 -5 3 -11 -3 -6 9 -3 27 6 21 11 29 12 22 4 -7 -7 -13 -20
-13 -28 0 -10 10 -6 30 14 16 16 33 26 36 22 4 -3 15 -2 25 3 24 13 35 -5 12
-20 -16 -10 -15 -10 5 -5 13 4 22 2 22 -4 0 -6 -5 -11 -12 -11 -6 0 -8 -3 -4
-7 3 -4 -4 -13 -16 -20 -21 -11 -22 -12 -3 -13 11 0 38 11 60 25 22 13 35 25
28 25 -7 0 -10 6 -7 14 4 11 0 13 -18 9 -16 -3 -19 -2 -9 5 10 7 8 13 -10 26
-25 17 -77 20 -119 6z"/>
<path d="M2065 2102 c3 -46 2 -52 -11 -41 -12 10 -13 9 -8 -5 9 -22 34 -20 34
3 0 11 4 21 8 23 4 2 0 19 -9 38 l-18 35 4 -53z"/>
<path d="M1520 2095 c0 -13 3 -15 13 -7 10 8 24 8 53 0 47 -14 51 -15 64 -17
22 -2 8 -16 -18 -18 -16 -1 -35 -3 -42 -5 -8 -2 -14 2 -15 9 0 6 -3 14 -7 18
-3 4 -5 -1 -4 -12 2 -10 -2 -22 -8 -26 -6 -5 16 -6 49 -2 33 3 66 7 73 7 6 1
12 5 12 9 0 4 -6 9 -12 12 -7 2 12 4 42 3 30 -1 71 1 90 5 32 6 31 6 -15 8
-27 1 -79 6 -115 11 -154 24 -160 24 -160 5z"/>
<path d="M2085 2008 c-6 -13 -21 -28 -34 -34 -13 -7 -26 -17 -30 -22 -8 -14
-79 -42 -105 -42 -11 0 -28 -4 -35 -9 -22 -14 66 -2 116 15 43 16 103 73 103
99 0 21 -4 19 -15 -7z"/>
<path d="M925 1899 c-17 -26 -15 -48 5 -54 11 -4 27 -19 34 -34 8 -15 37 -47
64 -72 66 -60 122 -135 122 -164 0 -12 7 -28 15 -35 9 -7 14 -19 11 -27 -3 -7
-1 -13 4 -13 14 0 22 -38 12 -57 -6 -10 -6 -26 -2 -39 6 -15 5 -24 -3 -28 -7
-2 -8 -5 -1 -5 6 -1 9 -14 6 -31 -2 -16 -7 -28 -11 -26 -4 3 -6 -8 -5 -22 0
-15 -5 -36 -12 -47 -8 -12 -15 -30 -17 -41 -1 -11 -13 -34 -26 -50 -20 -26
-22 -27 -18 -6 3 12 2 22 -3 22 -4 0 -10 -14 -14 -31 -5 -27 -8 -30 -21 -19
-8 7 -15 20 -15 29 0 13 -2 14 -9 1 -6 -8 -7 -18 -5 -22 3 -4 -1 -8 -8 -9 -18
-1 32 -17 59 -18 13 -1 32 8 43 19 11 11 23 20 26 19 3 0 9 3 12 7 4 4 1 4 -5
0 -19 -11 -16 5 5 21 9 8 11 12 5 8 -7 -3 -13 -1 -13 4 0 6 5 11 11 11 5 0 7
5 4 10 -3 6 -3 10 2 10 4 0 9 12 9 28 3 58 28 165 34 147 4 -11 1 -45 -5 -77
-10 -47 -10 -60 1 -69 24 -20 58 -6 76 31 23 49 32 100 18 100 -12 0 -14 -5
-30 -66 -8 -32 -16 -43 -34 -46 l-24 -5 15 51 c8 28 17 54 20 59 2 4 -2 7 -9
7 -11 0 -14 31 -16 138 -4 257 -6 281 -18 265 -6 -9 -9 -37 -6 -63 2 -29 -1
-50 -8 -55 -8 -5 -8 -10 0 -20 6 -8 14 -40 16 -72 2 -32 6 -63 8 -69 2 -6 0
-17 -5 -25 -6 -10 -9 -5 -9 17 0 56 -58 152 -152 251 -49 51 -97 111 -107 135
-13 32 -20 38 -26 27z"/>
<path d="M1680 1848 c0 -12 10 -43 23 -68 16 -33 23 -64 24 -115 1 -62 0 -65
-7 -25 l-7 45 -1 -54 c-2 -50 -3 -53 -24 -47 -13 4 -34 9 -48 12 -13 3 -29 9
-35 13 -5 4 -37 8 -70 10 -33 1 -62 5 -65 9 -7 10 -60 9 -60 0 0 -5 -11 -6
-25 -4 -14 3 -25 0 -25 -5 0 -6 -10 -10 -22 -9 -49 4 -88 -1 -88 -11 0 -7 45
-8 148 -3 142 6 151 6 236 -20 48 -15 89 -26 91 -24 1 2 8 27 14 56 18 86 14
162 -11 212 -26 50 -48 63 -48 28z"/>
<path d="M2788 1814 c-7 -16 -15 -31 -18 -34 -9 -8 -31 -62 -27 -66 2 -2 18
24 36 57 18 33 30 63 27 66 -3 3 -11 -7 -18 -23z"/>
<path d="M448 1789 c12 -19 31 -52 42 -74 28 -55 76 -110 83 -98 4 6 -5 23
-18 37 -14 15 -25 23 -25 19 0 -4 -17 25 -38 66 -21 41 -44 77 -51 79 -10 3
-8 -6 7 -29z"/>
<path d="M2880 1801 c0 -7 -5 -9 -12 -5 -9 6 -9 3 0 -9 8 -9 11 -20 8 -25 -3
-5 4 -18 15 -28 21 -19 21 -19 14 21 -7 39 -25 72 -25 46z"/>
<path d="M1240 1785 c0 -23 26 -75 37 -75 8 0 6 12 -9 38 -26 45 -28 47 -28
37z"/>
<path d="M1776 1644 c-3 -9 -6 -25 -6 -37 -1 -25 -39 -99 -40 -77 0 13 -1 13
-10 0 -6 -10 -4 -20 6 -31 11 -12 13 -29 9 -65 -6 -42 -2 -60 25 -119 18 -38
43 -85 57 -104 14 -18 35 -56 45 -85 36 -94 93 -155 170 -181 43 -15 47 -19
58 -65 13 -55 7 -123 -21 -249 -11 -46 -18 -85 -17 -86 2 -2 12 9 22 23 11 14
14 22 8 18 -7 -4 -12 -2 -12 3 0 6 4 11 10 11 5 0 7 7 4 15 -4 11 1 15 17 16
17 1 19 3 7 6 -32 8 -20 30 15 27 27 -3 28 -2 8 4 -25 8 -41 32 -22 32 6 0 11
5 11 11 0 5 -4 7 -10 4 -5 -3 -10 -1 -10 4 0 6 3 11 8 11 4 0 7 19 6 43 0 23
4 48 9 55 6 7 6 12 -1 12 -5 0 -12 9 -15 19 -4 17 1 21 37 24 l41 4 -40 1
c-33 2 -43 7 -58 33 -20 36 -20 38 16 41 15 1 27 7 27 13 0 7 3 7 8 0 13 -20
89 -47 149 -54 38 -4 70 -15 88 -29 15 -12 25 -22 21 -22 -4 0 -1 -6 7 -14 8
-8 22 -39 32 -68 9 -29 21 -58 26 -64 10 -12 0 -82 -12 -90 -5 -3 -9 -24 -9
-47 0 -24 -7 -53 -16 -65 -9 -13 -11 -22 -4 -22 6 0 16 13 21 30 10 26 13 28
26 15 8 -8 16 -15 18 -15 6 0 -7 32 -23 57 -9 15 -10 23 -3 23 6 0 11 7 11 16
0 8 7 22 15 31 8 8 13 18 10 23 -3 4 2 13 10 20 12 10 8 23 -25 88 -22 42 -40
82 -40 88 0 6 -13 25 -29 43 -31 34 -73 46 -104 29 -13 -6 -23 -5 -35 4 -9 7
-13 8 -9 2 4 -7 -2 -11 -18 -11 -14 0 -25 5 -25 13 0 7 -5 16 -12 20 -8 5 -9
2 -5 -9 5 -14 3 -15 -13 -7 -11 6 -29 15 -40 20 -27 14 -47 13 -53 -2 -4 -10
-8 -9 -16 2 -8 11 -11 12 -11 2 0 -7 -4 -10 -10 -7 -5 3 -10 0 -10 -7 -1 -8
-4 -7 -10 4 -7 11 -17 14 -32 10 -21 -5 -22 -4 -8 12 13 16 12 18 -5 16 -33
-4 -55 0 -55 8 0 4 19 6 43 5 l42 -2 -42 10 c-26 6 -43 16 -43 25 0 8 -6 14
-14 14 -16 0 -29 27 -19 42 4 7 1 8 -7 3 -8 -5 -11 -3 -8 6 6 18 -39 106 -58
113 -8 3 -14 12 -14 21 0 8 -5 15 -11 15 -6 0 -9 7 -5 15 3 8 1 15 -5 15 -6 0
-9 8 -7 18 2 9 -2 22 -10 27 -7 6 -14 20 -15 33 0 12 -5 22 -10 22 -4 0 -5 5
-1 12 4 6 7 38 6 71 -1 40 4 64 14 74 8 8 12 19 9 24 -4 5 -3 15 2 22 12 19
14 45 4 51 -5 3 -12 -1 -15 -10z"/>
<path d="M576 1611 c-3 -5 3 -29 14 -52 19 -42 20 -43 20 -14 0 58 -18 92 -34
66z"/>
<path d="M2837 1547 c-29 -28 -70 -74 -92 -101 -22 -26 -46 -54 -53 -62 -7 -8
-11 -14 -8 -14 3 0 -19 -25 -49 -54 -50 -51 -95 -117 -78 -115 5 1 40 37 78
80 39 43 87 97 108 120 20 23 37 47 37 54 0 7 22 33 50 59 39 36 56 46 84 46
28 0 33 3 29 18 -9 37 -51 25 -106 -31z"/>
<path d="M2691 1544 c-19 -75 -24 -99 -17 -92 10 9 38 119 32 125 -2 3 -9 -12
-15 -33z"/>
<path d="M1384 1514 c-1 -24 2 -44 6 -44 10 0 11 78 2 84 -4 2 -8 -16 -8 -40z"/>
<path d="M2973 1534 c-11 -16 -32 -51 -46 -79 -14 -27 -37 -63 -52 -79 -30
-32 -28 -42 6 -26 25 12 42 37 91 133 32 65 33 97 1 51z"/>
<path d="M843 1460 c0 -41 2 -58 4 -37 2 20 2 54 0 75 -2 20 -4 3 -4 -38z"/>
<path d="M1593 1484 c-31 -44 -72 -84 -86 -84 -7 0 -31 -19 -52 -41 -22 -23
-32 -39 -23 -36 11 4 21 0 26 -11 11 -21 4 -45 -10 -36 -7 4 -8 2 -4 -4 10
-17 14 -15 30 16 13 26 13 31 -2 46 -16 16 -16 17 1 10 16 -6 22 4 18 29 0 4
9 7 22 7 24 0 87 59 87 81 0 7 7 21 17 31 9 10 11 18 5 18 -6 0 -19 -12 -29
-26z"/>
<path d="M1650 1469 c0 -75 -66 -185 -103 -173 -12 4 -17 2 -13 -4 8 -14 -4
-42 -18 -42 -7 0 -22 -17 -34 -39 -25 -44 -29 -64 -7 -35 9 12 14 14 15 6 0
-8 6 -12 13 -9 6 2 17 -2 22 -8 16 -20 65 -28 65 -11 0 21 -19 31 -33 17 -6
-6 -15 -11 -21 -11 -5 0 -6 3 -3 7 11 10 -13 32 -29 26 -8 -3 -14 -1 -14 5 0
17 27 33 45 25 15 -5 17 -3 11 12 -4 12 1 26 15 42 29 30 43 29 35 -2 -3 -14
-9 -36 -12 -50 -5 -21 -3 -25 16 -25 19 0 21 -4 16 -27 -7 -26 -10 -50 -22
-167 l-5 -49 46 54 46 54 -6 65 c-8 84 -9 93 -20 110 -5 9 -4 15 4 18 8 3 5 9
-9 19 -20 14 -21 21 -16 66 4 28 14 66 22 85 16 40 18 62 4 62 -5 0 -10 -9
-10 -21z m-12 -232 c2 -10 -3 -17 -12 -17 -10 0 -16 9 -16 21 0 24 23 21 28
-4z m12 -108 c0 -23 -16 -25 -24 -3 -10 25 -7 34 9 28 8 -4 15 -15 15 -25z"/>
<path d="M2880 1442 c-14 -9 -27 -20 -28 -25 -2 -4 -7 -5 -12 -2 -4 3 -10 -2
-14 -10 -9 -23 6 -18 49 20 43 37 45 44 5 17z"/>
<path d="M1386 1358 c-3 -13 -6 -32 -6 -42 0 -29 17 -7 25 32 7 36 -9 45 -19
10z"/>
<path d="M1336 1358 c-13 -41 -26 -111 -22 -115 3 -4 12 19 41 115 3 6 0 12
-6 12 -5 0 -11 -6 -13 -12z"/>
<path d="M613 1295 c0 -38 2 -53 4 -32 2 20 2 52 0 70 -2 17 -4 1 -4 -38z"/>
<path d="M2785 1331 l-30 -7 31 -5 c35 -6 54 -2 54 12 0 10 -10 10 -55 0z"/>
<path d="M100 1309 c-19 -5 -41 -6 -47 -4 -7 2 -13 1 -13 -4 0 -5 28 -11 63
-13 47 -4 84 -16 147 -48 47 -23 90 -46 97 -51 6 -6 37 -12 70 -15 51 -5 56
-4 38 8 -11 8 -51 24 -90 37 -65 22 -147 55 -205 85 -17 9 -37 10 -60 5z"/>
<path d="M2283 1283 c-18 -7 -16 -20 2 -20 8 0 15 4 15 9 0 5 5 6 10 3 6 -4 8
-11 5 -16 -3 -5 2 -6 11 -2 16 6 15 7 -2 20 -19 14 -22 14 -41 6z"/>
<path d="M1285 1214 c-11 -8 -25 -12 -32 -10 -7 3 -10 -1 -6 -10 7 -20 -7 -18
-24 4 -13 15 -13 15 -4 -5 9 -18 8 -24 -7 -35 -10 -7 -22 -19 -27 -27 -4 -8
13 2 40 22 26 20 54 37 62 37 8 0 12 4 9 9 -4 5 0 11 6 14 7 2 11 7 8 10 -3 3
-14 -1 -25 -9z"/>
<path d="M87 1165 c-21 -7 -42 -17 -45 -21 -4 -4 2 -4 13 1 11 4 59 8 108 9
48 1 92 7 98 13 17 17 -127 15 -174 -2z"/>
<path d="M526 1171 c-10 -15 48 -34 111 -35 76 -1 69 10 -11 17 -32 3 -63 10
-69 16 -13 13 -24 14 -31 2z"/>
<path d="M1474 1143 c-17 -6 -4 -43 15 -43 13 0 13 2 2 9 -11 7 -11 9 0 14 9
3 11 8 4 15 -5 5 -15 8 -21 5z"/>
<path d="M1968 1112 c-16 -2 -28 -8 -28 -13 0 -12 37 -12 45 1 3 5 12 7 20 3
8 -3 15 -3 15 0 0 9 -24 13 -52 9z"/>
<path d="M633 1099 c-41 -12 -103 -83 -147 -171 -31 -59 -36 -79 -36 -136 0
-37 4 -72 8 -79 4 -6 7 23 7 65 0 69 4 84 38 152 43 84 82 130 109 130 11 0
17 4 14 9 -7 11 26 20 74 22 32 1 33 2 10 9 -32 10 -38 10 -77 -1z"/>
<path d="M801 1093 c-14 -11 -14 -12 7 -13 13 0 43 5 68 11 30 8 49 8 55 2 10
-10 -38 -27 -71 -25 -9 1 -10 -1 -3 -4 24 -11 1 -34 -36 -35 l-36 -1 30 -8
c28 -7 29 -8 5 -9 -25 -2 -25 -2 -2 -11 12 -5 22 -11 22 -13 0 -1 -28 -2 -62
-1 -49 1 -52 0 -13 -3 28 -2 54 -8 59 -13 5 -5 -14 -7 -45 -4 -58 4 -57 -1 4
-11 20 -3 37 -9 37 -13 0 -5 -17 -7 -37 -5 -34 2 -35 1 -9 -5 16 -4 32 -14 34
-22 5 -13 3 -13 -11 -1 -10 7 -17 9 -17 3 0 -5 7 -13 16 -16 14 -6 15 -9 2
-29 -8 -12 -14 -32 -13 -44 1 -17 -4 -23 -19 -24 -17 -1 -18 -2 -3 -6 10 -3
17 -14 17 -29 0 -14 -4 -22 -10 -19 -5 3 -10 1 -10 -4 0 -6 7 -11 15 -11 9 0
15 9 15 23 0 31 34 161 60 230 24 64 47 83 111 96 24 5 38 9 31 10 -7 1 -11 5
-8 9 8 14 -164 9 -183 -5z"/>
<path d="M1577 1103 c-4 -3 -7 -13 -7 -22 0 -9 -4 -22 -9 -30 -8 -12 -12 -12
-25 -2 -14 12 -16 10 -16 -8 0 -22 11 -25 44 -12 12 5 20 19 22 44 3 38 2 42
-9 30z"/>
<path d="M1013 1086 c7 -17 -16 -40 -27 -28 -5 4 -7 0 -5 -8 2 -8 -5 -37 -15
-63 -17 -43 -17 -49 -4 -60 9 -7 18 -19 22 -27 3 -8 4 -1 2 15 -3 17 5 58 16
93 17 52 24 62 41 60 11 -2 22 3 25 11 3 10 0 12 -11 8 -9 -3 -19 -2 -22 3
-10 16 -28 12 -22 -4z"/>
<path d="M2190 1075 c0 -8 -6 -12 -14 -9 -8 3 -17 1 -21 -5 -10 -16 -25 -13
-25 5 0 13 -3 14 -15 4 -8 -7 -13 -16 -10 -20 7 -12 -24 -34 -48 -35 -12 0
-23 -3 -24 -7 -2 -5 -1 -8 2 -8 3 0 14 0 25 0 10 0 28 10 39 21 11 12 27 19
35 16 8 -3 17 1 20 9 3 8 10 14 16 14 6 0 8 -4 5 -10 -3 -5 -1 -10 4 -10 6 0
11 5 11 11 0 6 7 8 16 5 13 -5 14 -4 6 7 -7 8 -9 17 -5 20 3 4 1 7 -5 7 -7 0
-12 -7 -12 -15z"/>
<path d="M2955 1054 c-27 -33 -56 -51 -91 -57 -16 -3 -45 -12 -64 -21 l-35
-15 48 -1 c27 0 56 4 65 9 32 18 126 111 112 111 -8 -1 -24 -12 -35 -26z"/>
<path d="M2250 1059 c0 -5 23 -9 52 -9 28 0 49 3 46 6 -10 10 -98 13 -98 3z"/>
<path d="M2450 1043 c0 -14 65 -53 88 -52 12 0 11 3 -5 9 -14 6 -21 15 -17 23
4 11 -1 13 -21 9 -17 -3 -30 1 -36 9 -5 9 -9 9 -9 2z"/>
<path d="M929 971 c-22 -67 -22 -74 -10 -185 l13 -115 39 2 c36 1 58 17 23 17
-9 0 -12 5 -8 13 6 10 4 10 -7 0 -22 -22 -27 -15 -37 55 -14 86 -14 142 -2
142 6 0 11 -26 11 -57 2 -71 11 -115 24 -120 7 -2 7 28 1 92 -8 78 -12 96 -28
101 -20 6 -18 28 8 92 7 17 9 32 4 32 -5 0 -19 -31 -31 -69z"/>
<path d="M2255 1031 c21 -10 82 -15 73 -6 -3 3 -25 7 -49 10 -32 4 -38 2 -24
-4z"/>
<path d="M2560 1008 c0 -22 6 -28 33 -33 17 -4 55 -20 82 -35 28 -15 65 -30
83 -34 63 -11 166 -66 205 -108 20 -23 37 -36 37 -29 0 24 -53 111 -67 111 -8
0 -12 4 -9 8 3 5 0 9 -7 10 -7 0 -30 7 -52 15 -22 9 -63 14 -91 13 -42 -1 -50
1 -47 15 3 9 -2 16 -10 16 -23 0 -131 47 -144 63 -10 13 -12 11 -13 -12z"/>
<path d="M2272 990 c17 -13 26 -14 44 -6 36 17 29 24 -20 24 -43 -1 -44 -2
-24 -18z"/>
<path d="M1350 974 c0 -9 6 -30 14 -47 8 -18 22 -49 30 -69 8 -21 19 -38 25
-38 10 0 34 -70 27 -78 -7 -7 -45 22 -50 38 -3 11 -4 10 -5 -3 -1 -16 -7 -17
-48 -12 -80 11 -103 23 -103 57 0 19 -4 27 -11 22 -6 -3 -9 -17 -6 -30 5 -29
-22 -34 -30 -6 -6 24 -43 48 -43 28 0 -8 8 -17 18 -21 16 -6 16 -7 -1 -19 -15
-12 -11 -14 35 -19 92 -10 217 -36 261 -55 23 -10 58 -25 77 -32 19 -7 39 -17
45 -22 5 -4 18 -8 29 -8 18 0 18 -2 6 -13 -27 -25 -137 -67 -174 -67 -25 0
-73 18 -146 54 -60 30 -111 52 -113 49 -3 -2 -19 3 -37 12 -18 9 -34 14 -38
11 -3 -3 0 -6 6 -6 7 0 12 -6 12 -14 0 -7 17 -22 38 -31 20 -10 85 -42 144
-71 59 -30 116 -54 126 -54 26 0 62 -28 62 -49 0 -14 -11 -20 -42 -25 -37 -6
-52 -2 -125 36 -117 61 -115 59 -154 99 -20 19 -57 45 -81 57 -25 11 -58 36
-72 54 -14 18 -26 27 -26 20 0 -7 11 -25 25 -40 l25 -27 -27 -6 -28 -5 24 -8
c16 -6 26 -4 32 5 6 9 11 11 17 4 4 -6 22 -21 40 -34 25 -17 32 -29 32 -55 0
-34 25 -66 51 -66 8 0 2 8 -13 18 -17 10 -28 25 -28 39 0 33 16 36 37 8 17
-23 189 -115 216 -115 8 0 25 -9 38 -21 32 -27 75 -50 82 -42 4 3 32 1 64 -6
69 -13 113 -3 151 34 14 14 32 23 39 21 8 -3 12 -2 9 3 -3 5 1 11 9 15 8 3 15
13 15 22 0 13 6 15 30 10 18 -3 29 -2 25 4 -3 5 3 9 12 8 10 0 39 3 65 7 44 7
46 6 50 -16 2 -18 10 -25 33 -27 27 -2 28 -1 10 9 -11 7 -21 13 -23 15 -2 1 1
12 8 23 10 19 8 21 -17 21 -30 1 -27 5 24 37 10 6 -9 2 -42 -8 -108 -35 -175
-48 -175 -34 0 7 14 25 31 39 17 14 28 26 24 26 -15 0 -52 -25 -71 -48 -23
-27 -78 -40 -180 -41 -52 -1 -64 2 -84 24 -13 14 -26 21 -30 16 -3 -6 -11 -6
-20 -1 -19 12 0 34 54 63 36 19 54 22 153 19 102 -2 113 -1 126 18 7 11 16 17
19 15 10 -10 15 20 7 40 -5 15 -8 16 -8 4 -2 -34 -38 -52 -89 -46 -42 5 -117
32 -132 47 -3 3 -16 6 -30 8 -42 5 -121 45 -116 59 3 7 0 15 -6 19 -6 4 -8 22
-5 43 3 20 3 30 0 24 -2 -7 -9 -13 -15 -13 -6 0 -6 6 2 15 7 8 19 15 27 15 19
0 64 -30 58 -40 -6 -10 44 -32 56 -25 14 9 10 -17 -6 -45 -17 -30 -18 -40 -5
-40 5 0 19 18 30 40 12 23 34 47 53 56 43 22 77 54 77 73 0 10 -8 7 -28 -12
-33 -31 -58 -37 -43 -9 6 12 5 24 -2 37 -11 18 -12 16 -17 -20 -4 -33 -10 -41
-34 -50 -22 -7 -30 -7 -33 2 -2 7 -11 9 -19 6 -9 -3 -29 7 -48 26 -22 21 -38
30 -50 25 -20 -8 -66 31 -66 55 -1 17 -23 51 -34 51 -3 0 -6 -7 -6 -16z m430
-492 c0 -10 -23 -33 -57 -56 l-56 -38 -86 7 c-118 10 -140 28 -71 59 30 13 53
16 88 11 34 -4 64 0 107 14 75 25 75 25 75 3z"/>
<path d="M1447 938 c-17 -29 -15 -48 4 -48 6 0 9 8 8 18 -1 9 1 25 6 35 13 31
1 27 -18 -5z"/>
<path d="M2636 893 c16 -15 33 -37 38 -48 6 -16 9 -17 17 -5 8 12 10 10 6 -8
-3 -12 -1 -20 3 -17 5 3 10 -1 13 -7 2 -7 7 -10 11 -6 20 18 -59 110 -99 116
-16 3 -15 -2 11 -25z"/>
<path d="M1280 816 c0 -9 58 -36 77 -36 14 1 13 4 -7 14 -32 17 -70 29 -70 22z"/>
<path d="M1121 785 c-1 -24 -3 -27 -12 -15 -9 12 -10 12 -5 -3 3 -10 6 -26 6
-35 1 -11 6 -7 16 12 12 21 13 34 6 50 -10 19 -11 19 -11 -9z"/>
<path d="M830 689 c-14 -4 -21 -7 -16 -8 5 -1 3 -7 -3 -15 -19 -22 24 -56 68
-55 l36 1 -30 9 c-16 4 -36 18 -43 30 -13 21 -13 21 21 15 20 -4 38 -3 41 2 8
13 -47 29 -74 21z"/>
<path d="M1490 682 c0 -19 29 -47 39 -37 6 7 1 16 -15 28 -13 10 -24 14 -24 9z"/>
<path d="M800 586 c14 -8 41 -15 60 -14 l35 1 -40 7 c-22 4 -49 10 -60 14 -13
5 -11 2 5 -8z"/>
<path d="M0 558 c0 -23 13 -35 108 -92 51 -31 141 -90 199 -131 58 -41 110
-75 115 -75 21 0 -7 -99 -49 -178 -40 -74 -43 -82 -25 -82 14 0 31 17 51 50
17 28 31 54 31 58 0 4 6 19 13 33 23 43 28 103 12 126 -21 30 -282 213 -304
213 -5 0 -16 6 -23 13 -8 6 -25 18 -38 26 -14 8 -40 23 -57 34 -25 14 -33 16
-33 5z"/>
<path d="M2090 437 c19 -8 51 -24 70 -36 19 -11 46 -20 60 -20 20 1 21 2 6 6
-11 3 -38 16 -59 30 -22 13 -56 27 -76 29 l-36 4 35 -13z"/>
<path d="M636 405 c-16 -16 -31 -54 -24 -61 3 -2 14 14 26 36 23 43 22 49 -2
25z"/>
<path d="M2320 313 c64 -71 83 -82 138 -83 23 0 42 -4 42 -10 0 -5 11 -10 25
-10 15 0 25 -6 25 -14 0 -18 19 -24 50 -15 22 6 22 7 4 8 -11 1 -29 10 -38 20
-11 12 -44 24 -89 32 -67 12 -76 17 -134 71 -34 32 -65 58 -69 58 -3 0 18 -26
46 -57z"/>
<path d="M1590 270 c0 -16 -7 -20 -37 -21 -57 -2 -102 -14 -82 -23 9 -4 36 -2
60 3 66 16 72 14 67 -14 -3 -14 -2 -25 2 -25 8 0 24 -70 24 -110 1 -26 42 -87
52 -77 3 3 -8 57 -26 119 -34 117 -38 134 -39 156 -2 20 -21 13 -21 -8z"/>
<path d="M866 160 c-3 -19 -17 -62 -31 -94 -13 -33 -22 -62 -19 -65 8 -8 23
20 35 66 11 43 36 64 45 39 6 -14 44 -29 44 -17 0 3 -11 18 -25 33 -14 15 -29
38 -34 50 -7 20 -9 19 -15 -12z"/>
<path d="M2942 168 c-10 -10 -49 -19 -84 -19 -9 0 -15 -6 -13 -12 3 -7 1 -18
-4 -26 -8 -13 -12 -13 -26 -1 -15 12 -16 11 -9 -15 12 -48 47 -94 71 -95 l23
0 -20 50 c-11 28 -20 55 -20 60 0 6 17 10 39 10 47 0 101 10 101 19 0 3 -11
14 -24 23 -16 12 -26 14 -34 6z"/>
<path d="M2570 150 c0 -5 4 -10 8 -10 4 0 13 -15 20 -34 7 -18 23 -45 36 -59
13 -14 21 -28 18 -31 -3 -3 2 -6 11 -6 10 0 17 5 17 10 0 6 -4 10 -9 10 -11 0
-51 66 -51 83 0 12 -34 47 -45 47 -3 0 -5 -4 -5 -10z"/>
</g>
</svg>
